<svg xmlns="http://www.w3.org/2000/svg" xmlns:xlink="http://www.w3.org/1999/xlink" width="500" zoomAndPan="magnify" viewBox="0 0 375 374.999991" height="500" preserveAspectRatio="xMidYMid meet" version="1.0"><defs><clipPath id="4bee0fadd8"><path d="M 2.25 6.394531 L 362.25 6.394531 L 362.25 372.976562 L 2.25 372.976562 Z M 2.25 6.394531 " clip-rule="nonzero"/></clipPath></defs><rect x="-37.5" width="450" fill="#ffffff" y="-37.499999" height="449.999989" fill-opacity="1"/><rect x="-37.5" width="450" fill="#ffffff" y="-37.499999" height="449.999989" fill-opacity="1"/><path fill="#058789" d="M 135.867188 262.652344 C 136.023438 262.136719 136.175781 261.617188 136.339844 261.105469 C 137.359375 257.03125 139.214844 252.347656 141.324219 247.78125 C 144.089844 241.421875 147.339844 235.28125 151.085938 229.4375 C 164.546875 208.441406 183 192.265625 200.84375 176.617188 L 202.570312 175.105469 C 216.554688 162.835938 229.195312 151.316406 239.03125 138.539062 L 239.03125 138.34375 C 241.144531 135.605469 244.007812 131.671875 246.777344 127.171875 C 246.976562 126.832031 247.179688 126.496094 247.378906 126.152344 C 251.039062 119.808594 253.753906 113.273438 255.507812 106.804688 C 254.738281 108.371094 248.191406 121.535156 239.03125 132.285156 L 239.03125 79.976562 L 185.078125 79.976562 C 172.511719 79.976562 162.328125 90.164062 162.328125 102.730469 L 162.328125 157.515625 L 84.785156 157.515625 L 84.785156 211.46875 C 84.785156 224.035156 94.972656 234.222656 107.539062 234.222656 L 141.011719 234.222656 C 137.898438 244.746094 136.324219 258.199219 135.867188 262.652344 " fill-opacity="1" fill-rule="nonzero"/><path fill="#05696b" d="M 162.328125 271.011719 L 162.328125 271.300781 C 161.796875 272.996094 161.171875 275.171875 160.546875 277.675781 C 159.039062 284.117188 158.101562 290.699219 157.753906 297.308594 C 158.136719 295.765625 159.8125 289.269531 162.328125 282.554688 L 162.328125 311.765625 L 169.5 311.765625 C 172.800781 302.945312 177.527344 294.921875 186.808594 288.601562 C 203.9375 276.9375 216.257812 263.59375 217.46875 255.398438 L 218.789062 246.433594 L 225.070312 252.964844 C 225.566406 253.480469 229.945312 258.253906 230.871094 266.789062 C 232.035156 277.53125 227.339844 288.929688 216.917969 300.675781 C 216.402344 302.433594 215.25 307.003906 215.613281 311.765625 L 216.28125 311.765625 C 228.84375 311.765625 239.03125 301.578125 239.03125 289.011719 L 239.03125 234.222656 L 316.574219 234.222656 L 316.574219 180.269531 C 316.574219 167.703125 306.386719 157.515625 293.820312 157.515625 L 264.832031 157.515625 C 270.117188 146.386719 275.636719 132.164062 275.636719 132.164062 C 273.023438 138.539062 268.398438 145.570312 264.15625 151.328125 C 252.402344 167.753906 237.480469 181.445312 220.894531 195.996094 L 219.167969 197.511719 C 202.019531 212.546875 185.820312 226.75 174.480469 244.4375 C 169.203125 252.667969 165.144531 261.648438 162.328125 271.011719 " fill-opacity="1" fill-rule="nonzero"/><g clip-path="url(#4bee0fadd8)"><path fill="#058789" d="M 362.292969 263.585938 C 361.320312 258.875 354.894531 259.292969 351.40625 260.898438 C 347.480469 262.710938 345.265625 266.707031 342.617188 269.84375 C 339.859375 273.105469 337.019531 276.300781 334.078125 279.40625 C 312.65625 301.992188 285.484375 321.773438 254.101562 328.578125 C 197.78125 340.785156 212.972656 298.417969 212.972656 298.417969 C 237.054688 271.84375 221.867188 256.046875 221.867188 256.046875 C 220.386719 266.089844 206.699219 280.433594 189.308594 292.277344 C 176.765625 300.820312 173.34375 313.148438 169.535156 326.574219 C 169.824219 325.550781 134.242188 319.167969 131.242188 318.414062 C 118.855469 315.300781 106.882812 310.644531 95.808594 304.421875 C 80.542969 295.851562 66.472656 283.664062 55.6875 270.234375 C 55.117188 269.519531 54.546875 268.796875 53.976562 268.078125 C 53.441406 267.332031 52.90625 266.582031 52.367188 265.832031 C 43.652344 253.902344 36.40625 240.285156 31.207031 225.621094 C 30.589844 223.773438 29.972656 221.925781 29.351562 220.074219 C 29.1875 219.613281 29.050781 219.144531 28.925781 218.671875 L 28.535156 217.261719 L 27.746094 214.429688 C 27.484375 213.480469 27.207031 212.539062 26.957031 211.585938 L 26.316406 208.710938 L 25.667969 205.824219 C 25.460938 204.863281 25.207031 203.902344 25.066406 202.925781 C 24.734375 200.980469 24.402344 199.03125 24.070312 197.078125 C 23.988281 196.585938 23.890625 196.101562 23.828125 195.609375 L 23.65625 194.132812 L 23.308594 191.175781 L 22.957031 188.214844 C 22.828125 187.226562 22.8125 186.230469 22.734375 185.238281 L 22.539062 182.257812 L 22.441406 180.765625 L 22.390625 180.019531 L 22.367188 179.644531 L 22.355469 179.460938 C 22.351562 179.503906 22.351562 179.089844 22.339844 179.515625 L 22.269531 173.1875 L 22.25 171.605469 C 22.242188 171.074219 22.234375 170.539062 22.265625 170.078125 L 22.382812 167.171875 L 22.492188 164.261719 L 22.546875 162.804688 C 22.570312 162.320312 22.632812 161.816406 22.671875 161.320312 C 22.851562 159.328125 23.035156 157.339844 23.214844 155.355469 C 23.277344 154.359375 23.453125 153.375 23.589844 152.386719 L 24.015625 149.425781 L 24.4375 146.460938 C 24.613281 145.484375 24.816406 144.503906 25.007812 143.527344 L 25.582031 140.597656 L 25.867188 139.128906 C 25.957031 138.640625 26.058594 138.152344 26.1875 137.671875 C 26.671875 135.742188 27.152344 133.8125 27.632812 131.886719 C 31.753906 116.546875 38.105469 101.941406 46.199219 88.847656 C 46.699219 88.019531 47.199219 87.199219 47.695312 86.378906 C 48.230469 85.582031 48.765625 84.789062 49.300781 83.996094 C 50.378906 82.417969 51.40625 80.8125 52.511719 79.265625 C 54.796875 76.234375 56.972656 73.152344 59.414062 70.3125 C 60.007812 69.59375 60.597656 68.871094 61.191406 68.152344 L 62.074219 67.078125 L 63.007812 66.042969 C 64.25 64.667969 65.488281 63.300781 66.71875 61.941406 L 67.644531 60.925781 L 68.613281 59.957031 C 69.257812 59.308594 69.898438 58.664062 70.539062 58.023438 C 71.183594 57.375 71.820312 56.734375 72.457031 56.097656 L 73.417969 55.140625 L 74.414062 54.230469 C 75.742188 53.019531 77.058594 51.816406 78.371094 50.621094 L 79.351562 49.726562 L 80.367188 48.878906 C 81.046875 48.316406 81.726562 47.753906 82.398438 47.195312 C 83.074219 46.636719 83.746094 46.078125 84.414062 45.523438 C 85.085938 44.96875 85.742188 44.398438 86.445312 43.898438 C 87.828125 42.855469 89.199219 41.824219 90.558594 40.800781 C 91.242188 40.292969 91.90625 39.765625 92.601562 39.28125 C 93.300781 38.808594 94 38.335938 94.691406 37.859375 C 96.078125 36.917969 97.457031 35.980469 98.820312 35.050781 C 100.203125 34.15625 101.613281 33.324219 102.992188 32.46875 C 103.683594 32.046875 104.371094 31.625 105.054688 31.203125 C 105.738281 30.78125 106.417969 30.359375 107.121094 29.988281 C 118.183594 23.667969 129.054688 19.039062 138.972656 15.699219 C 140.21875 15.300781 141.449219 14.90625 142.65625 14.519531 C 143.257812 14.324219 143.855469 14.132812 144.453125 13.941406 C 144.75 13.847656 145.042969 13.75 145.335938 13.65625 C 145.636719 13.578125 145.933594 13.5 146.230469 13.417969 C 148.601562 12.78125 150.886719 12.167969 153.078125 11.574219 C 155.289062 11.035156 157.433594 10.613281 159.472656 10.152344 C 160.496094 9.9375 161.492188 9.707031 162.46875 9.511719 C 163.449219 9.347656 164.410156 9.1875 165.34375 9.03125 C 167.214844 8.71875 168.984375 8.421875 170.648438 8.144531 C 172.320312 7.910156 173.898438 7.753906 175.363281 7.570312 C 176.828125 7.398438 178.1875 7.242188 179.429688 7.09375 C 180.675781 6.957031 181.8125 6.917969 182.828125 6.835938 C 186.898438 6.558594 189.070312 6.410156 189.070312 6.410156 C 189.070312 6.410156 186.890625 6.40625 182.808594 6.398438 C 181.785156 6.410156 180.640625 6.371094 179.386719 6.421875 C 178.128906 6.480469 176.757812 6.546875 175.277344 6.617188 C 173.796875 6.695312 172.199219 6.742188 170.5 6.863281 C 168.804688 7.027344 167.003906 7.199219 165.101562 7.382812 C 164.144531 7.476562 163.167969 7.566406 162.164062 7.664062 C 161.164062 7.792969 160.144531 7.953125 159.097656 8.101562 C 157.003906 8.417969 154.800781 8.695312 152.523438 9.089844 C 150.253906 9.53125 147.894531 9.996094 145.441406 10.472656 C 145.136719 10.535156 144.828125 10.59375 144.515625 10.652344 C 144.210938 10.730469 143.90625 10.804688 143.59375 10.878906 C 142.976562 11.027344 142.355469 11.179688 141.726562 11.335938 C 140.46875 11.644531 139.195312 11.960938 137.894531 12.28125 C 127.539062 14.972656 116.050781 18.933594 104.136719 24.664062 C 103.378906 25 102.644531 25.386719 101.90625 25.773438 C 101.164062 26.15625 100.421875 26.542969 99.675781 26.933594 C 98.183594 27.71875 96.65625 28.476562 95.148438 29.308594 C 93.664062 30.171875 92.164062 31.042969 90.652344 31.921875 C 89.894531 32.363281 89.132812 32.808594 88.367188 33.25 C 87.605469 33.703125 86.878906 34.203125 86.125 34.683594 C 84.628906 35.652344 83.117188 36.625 81.59375 37.609375 C 80.824219 38.089844 80.09375 38.632812 79.351562 39.160156 C 78.609375 39.691406 77.863281 40.226562 77.113281 40.761719 C 76.367188 41.296875 75.613281 41.835938 74.859375 42.375 L 73.726562 43.1875 L 72.628906 44.054688 C 71.160156 45.210938 69.683594 46.378906 68.195312 47.550781 L 67.078125 48.4375 L 65.996094 49.371094 C 65.277344 49.996094 64.554688 50.621094 63.828125 51.253906 C 63.105469 51.882812 62.378906 52.511719 61.648438 53.148438 L 60.550781 54.101562 L 59.496094 55.105469 C 58.089844 56.449219 56.675781 57.800781 55.25 59.164062 L 54.1875 60.191406 L 53.164062 61.261719 C 52.480469 61.980469 51.796875 62.699219 51.109375 63.417969 C 48.300781 66.253906 45.746094 69.355469 43.070312 72.425781 C 41.769531 73.984375 40.546875 75.617188 39.269531 77.226562 C 38.632812 78.035156 38 78.84375 37.363281 79.660156 C 36.769531 80.496094 36.171875 81.335938 35.570312 82.179688 C 25.863281 95.597656 17.792969 110.898438 12.042969 127.363281 C 11.359375 129.4375 10.671875 131.507812 9.988281 133.589844 C 9.808594 134.109375 9.65625 134.632812 9.515625 135.164062 L 9.082031 136.746094 L 8.210938 139.921875 C 7.921875 140.984375 7.621094 142.042969 7.347656 143.109375 L 6.636719 146.332031 L 5.925781 149.570312 C 5.699219 150.648438 5.425781 151.722656 5.269531 152.816406 C 4.90625 155 4.542969 157.183594 4.179688 159.367188 C 4.09375 159.917969 3.988281 160.457031 3.917969 161.015625 L 3.722656 162.710938 L 3.34375 166.101562 L 2.96875 169.5 C 2.898438 170.085938 2.867188 170.609375 2.835938 171.128906 L 2.734375 172.710938 L 2.335938 179.027344 L 2.269531 185.953125 C 2.277344 187.070312 2.21875 188.183594 2.277344 189.296875 L 2.417969 192.640625 L 2.5625 195.984375 L 2.636719 197.65625 C 2.664062 198.214844 2.734375 198.769531 2.78125 199.324219 C 2.992188 201.546875 3.203125 203.769531 3.414062 205.988281 C 3.496094 207.105469 3.695312 208.203125 3.847656 209.308594 L 4.335938 212.621094 L 4.828125 215.929688 C 5.027344 217.023438 5.257812 218.117188 5.472656 219.210938 L 6.128906 222.488281 L 6.457031 224.125 C 6.5625 224.671875 6.675781 225.214844 6.824219 225.753906 C 7.371094 227.910156 7.917969 230.066406 8.464844 232.21875 C 13.140625 249.359375 20.3125 265.652344 29.402344 280.234375 C 29.964844 281.148438 30.523438 282.0625 31.082031 282.976562 C 31.683594 283.863281 32.28125 284.746094 32.878906 285.628906 C 34.089844 287.390625 35.246094 289.175781 36.488281 290.890625 C 39.042969 294.273438 41.496094 297.6875 44.222656 300.847656 C 44.886719 301.652344 45.550781 302.453125 46.214844 303.25 C 46.214844 303.25 47.207031 304.445312 47.207031 304.445312 C 70.714844 332.65625 99.507812 354.308594 135.703125 364.769531 C 158.15625 371.257812 181.769531 374.679688 205.234375 372.429688 C 219.679688 371.046875 233.980469 368.195312 247.78125 363.804688 C 271.148438 356.371094 292.894531 344.519531 311.746094 329.230469 C 326.753906 317.066406 340.117188 302.765625 350.777344 286.847656 C 354.066406 281.9375 363.652344 270.15625 362.292969 263.585938 " fill-opacity="1" fill-rule="nonzero"/></g></svg>