<svg xmlns="http://www.w3.org/2000/svg" xmlns:xlink="http://www.w3.org/1999/xlink" width="500" zoomAndPan="magnify" viewBox="0 0 375 374.999991" height="500" preserveAspectRatio="xMidYMid meet" version="1.0"><defs><clipPath id="8df5aee8e1"><path d="M 2.25 0.164062 L 368.25 0.164062 L 368.25 373.117188 L 2.25 373.117188 Z M 2.25 0.164062 " clip-rule="nonzero"/></clipPath></defs><path fill="#058789" d="M 138.136719 260.773438 C 138.292969 260.25 138.449219 259.722656 138.617188 259.199219 C 139.652344 255.058594 141.542969 250.296875 143.6875 245.652344 C 146.5 239.183594 149.804688 232.9375 153.613281 226.996094 C 167.304688 205.644531 186.070312 189.191406 204.21875 173.277344 L 205.972656 171.742188 C 220.195312 159.261719 233.050781 147.550781 243.054688 134.550781 L 243.054688 134.351562 C 245.203125 131.566406 248.113281 127.570312 250.929688 122.992188 C 251.132812 122.644531 251.339844 122.304688 251.542969 121.957031 C 255.265625 115.503906 258.027344 108.859375 259.808594 102.277344 C 259.027344 103.871094 252.367188 117.257812 243.054688 128.191406 L 243.054688 74.996094 L 188.183594 74.996094 C 175.40625 74.996094 165.046875 85.355469 165.046875 98.136719 L 165.046875 153.851562 L 86.1875 153.851562 L 86.1875 208.722656 C 86.1875 221.5 96.546875 231.863281 109.328125 231.863281 L 143.371094 231.863281 C 140.203125 242.566406 138.601562 256.246094 138.136719 260.773438 " fill-opacity="1" fill-rule="nonzero"/><path fill="#05696b" d="M 165.046875 269.277344 L 165.046875 269.570312 C 164.507812 271.296875 163.871094 273.507812 163.238281 276.054688 C 161.703125 282.605469 160.75 289.296875 160.394531 296.019531 C 160.785156 294.453125 162.488281 287.84375 165.046875 281.015625 L 165.046875 310.71875 L 172.34375 310.71875 C 175.699219 301.753906 180.503906 293.589844 189.941406 287.164062 C 207.363281 275.300781 219.890625 261.730469 221.121094 253.394531 L 222.46875 244.277344 L 228.855469 250.921875 C 229.359375 251.445312 233.8125 256.300781 234.753906 264.980469 C 235.9375 275.90625 231.164062 287.5 220.566406 299.441406 C 220.039062 301.230469 218.867188 305.878906 219.238281 310.71875 L 219.914062 310.71875 C 232.695312 310.71875 243.054688 300.359375 243.054688 287.582031 L 243.054688 231.863281 L 321.914062 231.863281 L 321.914062 176.992188 C 321.914062 164.210938 311.550781 153.851562 298.773438 153.851562 L 269.292969 153.851562 C 274.667969 142.53125 280.28125 128.070312 280.28125 128.070312 C 277.625 134.550781 272.921875 141.703125 268.605469 147.558594 C 256.652344 164.265625 241.476562 178.1875 224.609375 192.988281 L 222.851562 194.527344 C 205.414062 209.816406 188.941406 224.261719 177.40625 242.25 C 172.039062 250.621094 167.910156 259.753906 165.046875 269.277344 " fill-opacity="1" fill-rule="nonzero"/><g clip-path="url(#8df5aee8e1)"><path fill="#058789" d="M 368.410156 261.722656 C 367.421875 256.933594 360.882812 257.355469 357.339844 258.992188 C 353.34375 260.832031 351.089844 264.898438 348.398438 268.085938 C 345.59375 271.40625 342.707031 274.652344 339.710938 277.8125 C 317.929688 300.785156 290.292969 320.902344 258.378906 327.820312 C 201.101562 340.234375 216.550781 297.144531 216.550781 297.144531 C 241.042969 270.121094 225.59375 254.054688 225.59375 254.054688 C 224.089844 264.269531 210.171875 278.855469 192.488281 290.902344 C 179.730469 299.589844 176.25 312.128906 172.375 325.78125 C 172.671875 324.742188 136.484375 318.25 133.433594 317.484375 C 120.835938 314.320312 108.660156 309.582031 97.398438 303.253906 C 81.875 294.535156 67.5625 282.144531 56.59375 268.488281 C 56.015625 267.757812 55.433594 267.023438 54.855469 266.292969 C 54.3125 265.53125 53.765625 264.769531 53.21875 264.007812 C 44.359375 251.875 36.988281 238.027344 31.699219 223.113281 C 31.074219 221.238281 30.441406 219.355469 29.8125 217.472656 C 29.644531 217.003906 29.507812 216.527344 29.378906 216.046875 L 28.980469 214.609375 L 28.179688 211.730469 C 27.914062 210.769531 27.632812 209.808594 27.378906 208.839844 L 26.726562 205.914062 L 26.066406 202.980469 C 25.855469 202.003906 25.597656 201.027344 25.453125 200.035156 C 25.117188 198.054688 24.777344 196.070312 24.441406 194.085938 C 24.359375 193.585938 24.257812 193.09375 24.195312 192.59375 L 24.019531 191.09375 L 23.667969 188.085938 L 23.308594 185.074219 C 23.179688 184.070312 23.160156 183.054688 23.082031 182.046875 L 22.886719 179.015625 L 22.785156 177.496094 L 22.734375 176.738281 L 22.707031 176.359375 L 22.695312 176.167969 C 22.691406 176.214844 22.691406 175.792969 22.679688 176.226562 L 22.609375 169.789062 L 22.589844 168.179688 C 22.582031 167.640625 22.574219 167.097656 22.605469 166.625 L 22.722656 163.671875 L 22.835938 160.714844 L 22.890625 159.230469 C 22.914062 158.738281 22.976562 158.226562 23.019531 157.722656 C 23.203125 155.695312 23.386719 153.675781 23.570312 151.65625 C 23.636719 150.640625 23.816406 149.640625 23.953125 148.636719 L 24.382812 145.625 L 24.8125 142.609375 C 24.992188 141.613281 25.203125 140.621094 25.394531 139.628906 L 25.976562 136.648438 L 26.269531 135.152344 C 26.359375 134.65625 26.460938 134.160156 26.59375 133.671875 C 27.085938 131.707031 27.574219 129.746094 28.066406 127.789062 C 32.253906 112.1875 38.714844 97.332031 46.949219 84.015625 C 47.457031 83.175781 47.960938 82.34375 48.464844 81.507812 C 49.011719 80.699219 49.554688 79.890625 50.097656 79.082031 C 51.195312 77.476562 52.238281 75.84375 53.367188 74.273438 C 55.6875 71.191406 57.902344 68.054688 60.386719 65.167969 C 60.988281 64.4375 61.589844 63.703125 62.191406 62.972656 L 63.089844 61.878906 L 64.039062 60.824219 C 65.304688 59.425781 66.5625 58.039062 67.816406 56.65625 L 68.753906 55.621094 L 69.738281 54.636719 C 70.394531 53.976562 71.050781 53.320312 71.699219 52.667969 C 72.355469 52.011719 73.003906 51.359375 73.648438 50.710938 L 74.625 49.738281 L 75.640625 48.8125 C 76.988281 47.582031 78.332031 46.359375 79.664062 45.140625 L 80.660156 44.230469 L 81.695312 43.367188 C 82.386719 42.796875 83.074219 42.226562 83.761719 41.65625 C 84.445312 41.089844 85.132812 40.523438 85.8125 39.957031 C 86.492188 39.394531 87.160156 38.816406 87.875 38.304688 C 89.28125 37.242188 90.675781 36.195312 92.058594 35.15625 C 92.753906 34.640625 93.429688 34.101562 94.136719 33.609375 C 94.847656 33.128906 95.558594 32.644531 96.261719 32.164062 C 97.671875 31.203125 99.070312 30.253906 100.457031 29.308594 C 101.867188 28.394531 103.300781 27.550781 104.703125 26.683594 C 105.40625 26.253906 106.105469 25.820312 106.800781 25.394531 C 107.496094 24.964844 108.1875 24.535156 108.902344 24.160156 C 120.152344 17.730469 131.207031 13.023438 141.296875 9.628906 C 142.5625 9.21875 143.8125 8.820312 145.039062 8.425781 C 145.652344 8.230469 146.261719 8.03125 146.867188 7.839844 C 147.167969 7.742188 147.46875 7.644531 147.769531 7.550781 C 148.074219 7.46875 148.375 7.390625 148.675781 7.308594 C 151.085938 6.660156 153.410156 6.035156 155.640625 5.433594 C 157.890625 4.882812 160.070312 4.453125 162.144531 3.988281 C 163.183594 3.765625 164.195312 3.53125 165.1875 3.335938 C 166.1875 3.167969 167.164062 3.003906 168.113281 2.847656 C 170.015625 2.527344 171.816406 2.226562 173.511719 1.945312 C 175.210938 1.703125 176.8125 1.546875 178.304688 1.359375 C 179.792969 1.183594 181.175781 1.023438 182.4375 0.875 C 183.703125 0.734375 184.863281 0.695312 185.894531 0.613281 C 190.035156 0.332031 192.246094 0.179688 192.246094 0.179688 C 192.246094 0.179688 190.027344 0.175781 185.875 0.167969 C 184.835938 0.179688 183.671875 0.140625 182.394531 0.191406 C 181.117188 0.25 179.722656 0.316406 178.21875 0.390625 C 176.710938 0.46875 175.085938 0.519531 173.359375 0.640625 C 171.632812 0.804688 169.800781 0.980469 167.867188 1.167969 C 166.894531 1.261719 165.898438 1.359375 164.878906 1.457031 C 163.863281 1.585938 162.828125 1.75 161.761719 1.902344 C 159.632812 2.222656 157.390625 2.503906 155.078125 2.90625 C 152.769531 3.355469 150.367188 3.824219 147.875 4.3125 C 147.5625 4.375 147.25 4.433594 146.933594 4.496094 C 146.621094 4.574219 146.3125 4.648438 145.996094 4.722656 C 145.367188 4.878906 144.738281 5.03125 144.097656 5.1875 C 142.816406 5.503906 141.519531 5.824219 140.195312 6.148438 C 129.667969 8.890625 117.984375 12.917969 105.867188 18.746094 C 105.09375 19.085938 104.351562 19.476562 103.597656 19.871094 C 102.84375 20.261719 102.089844 20.65625 101.328125 21.050781 C 99.8125 21.847656 98.257812 22.621094 96.726562 23.46875 C 95.21875 24.347656 93.691406 25.230469 92.152344 26.125 C 91.382812 26.574219 90.605469 27.023438 89.828125 27.476562 C 89.058594 27.9375 88.316406 28.445312 87.550781 28.933594 C 86.027344 29.917969 84.492188 30.910156 82.941406 31.910156 C 82.15625 32.398438 81.417969 32.949219 80.660156 33.484375 C 79.90625 34.027344 79.148438 34.570312 78.386719 35.113281 C 77.625 35.65625 76.859375 36.207031 76.09375 36.753906 L 74.941406 37.582031 L 73.824219 38.464844 C 72.332031 39.640625 70.832031 40.828125 69.316406 42.019531 L 68.179688 42.917969 L 67.078125 43.871094 C 66.347656 44.503906 65.613281 45.144531 64.875 45.785156 C 64.136719 46.421875 63.398438 47.066406 62.65625 47.714844 L 61.539062 48.683594 L 60.46875 49.703125 C 59.039062 51.070312 57.597656 52.445312 56.148438 53.828125 L 55.066406 54.875 L 54.027344 55.964844 C 53.335938 56.691406 52.640625 57.421875 51.941406 58.15625 C 49.082031 61.039062 46.484375 64.191406 43.761719 67.316406 C 42.441406 68.902344 41.195312 70.5625 39.898438 72.199219 C 39.253906 73.019531 38.609375 73.84375 37.960938 74.671875 C 37.355469 75.523438 36.746094 76.378906 36.136719 77.234375 C 26.261719 90.878906 18.058594 106.445312 12.207031 123.1875 C 11.511719 125.296875 10.816406 127.402344 10.117188 129.519531 C 9.9375 130.046875 9.785156 130.582031 9.640625 131.121094 L 9.199219 132.730469 L 8.3125 135.960938 C 8.019531 137.039062 7.710938 138.117188 7.433594 139.199219 L 6.710938 142.480469 L 5.988281 145.769531 C 5.757812 146.867188 5.480469 147.960938 5.320312 149.074219 C 4.949219 151.292969 4.582031 153.511719 4.210938 155.734375 C 4.125 156.292969 4.015625 156.84375 3.945312 157.414062 L 3.75 159.132812 L 3.363281 162.582031 L 2.980469 166.039062 C 2.90625 166.632812 2.878906 167.167969 2.84375 167.695312 L 2.746094 169.304688 L 2.339844 175.730469 L 2.269531 182.773438 C 2.277344 183.90625 2.21875 185.042969 2.277344 186.175781 L 2.421875 189.574219 L 2.566406 192.976562 L 2.644531 194.675781 C 2.671875 195.242188 2.742188 195.804688 2.789062 196.371094 C 3.003906 198.632812 3.21875 200.894531 3.433594 203.148438 C 3.515625 204.285156 3.71875 205.402344 3.875 206.523438 L 4.371094 209.890625 L 4.871094 213.257812 C 5.074219 214.371094 5.308594 215.484375 5.527344 216.59375 L 6.195312 219.925781 L 6.527344 221.59375 C 6.636719 222.148438 6.753906 222.703125 6.902344 223.25 C 7.457031 225.441406 8.015625 227.636719 8.570312 229.824219 C 13.328125 247.253906 20.617188 263.824219 29.863281 278.652344 C 30.433594 279.585938 31.003906 280.515625 31.574219 281.441406 C 32.183594 282.34375 32.792969 283.246094 33.398438 284.144531 C 34.628906 285.929688 35.808594 287.746094 37.070312 289.492188 C 39.667969 292.929688 42.164062 296.40625 44.933594 299.617188 C 45.613281 300.433594 46.289062 301.25 46.960938 302.058594 C 46.960938 302.058594 47.972656 303.277344 47.972656 303.277344 C 71.878906 331.96875 101.160156 353.988281 137.972656 364.625 C 160.804688 371.222656 184.816406 374.703125 208.679688 372.417969 C 223.375 371.007812 237.917969 368.109375 251.953125 363.644531 C 275.714844 356.085938 297.832031 344.03125 317.003906 328.484375 C 332.265625 316.113281 345.855469 301.570312 356.695312 285.382812 C 360.042969 280.386719 369.789062 268.40625 368.410156 261.722656 " fill-opacity="1" fill-rule="nonzero"/></g></svg>